<?xml version="1.0" encoding="UTF-8"?>
<svg width="320" height="220" viewBox="0 0 320 220" fill="none" xmlns="http://www.w3.org/2000/svg">
  <defs>
    <linearGradient id="bgBlue" x1="0" y1="0" x2="1" y2="1">
      <stop offset="0" stop-color="#BFE3FF"/>
      <stop offset="1" stop-color="#E6F4FF"/>
    </linearGradient>
    <linearGradient id="drum" x1="0" y1="0" x2="0" y2="1">
      <stop offset="0" stop-color="#7CC3FF"/>
      <stop offset="1" stop-color="#4C9DFF"/>
    </linearGradient>
  </defs>
  <rect x="18" y="18" width="284" height="184" rx="28" fill="url(#bgBlue)"/>
  <rect x="90" y="50" width="120" height="120" rx="18" fill="#FFFFFF" stroke="#D5E8FF" stroke-width="2"/>
  <circle cx="150" cy="110" r="36" fill="url(#drum)"/>
  <circle cx="150" cy="110" r="24" fill="#E6F4FF"/>
  <rect x="108" y="60" width="24" height="12" rx="6" fill="#A4CCFF"/>
  <rect x="136" y="60" width="38" height="12" rx="6" fill="#D5E8FF"/>
  <rect x="50" y="128" width="56" height="48" rx="12" fill="#FFFFFF" stroke="#CFE3FF" stroke-width="2"/>
  <path d="M62 134h32l6 10H56l6-10Z" fill="#FFB36B"/>
  <path d="M64 148h36v20H64v-20Z" fill="#FF7A8A"/>
  <circle cx="230" cy="74" r="8" fill="#8BCBFF"/>
  <circle cx="252" cy="96" r="6" fill="#8BCBFF"/>
  <circle cx="230" cy="150" r="10" fill="#8BCBFF"/>
</svg>
