<?xml version="1.0" encoding="UTF-8"?>
<svg width="320" height="220" viewBox="0 0 320 220" fill="none" xmlns="http://www.w3.org/2000/svg">
  <defs>
    <linearGradient id="bgMint" x1="0" y1="0" x2="1" y2="1">
      <stop offset="0" stop-color="#CFF2C8"/>
      <stop offset="1" stop-color="#E8F9E3"/>
    </linearGradient>
    <linearGradient id="shirt" x1="0" y1="0" x2="0" y2="1">
      <stop offset="0" stop-color="#4CD3C1"/>
      <stop offset="1" stop-color="#20BCA5"/>
    </linearGradient>
  </defs>
  <rect x="18" y="18" width="284" height="184" rx="28" fill="url(#bgMint)"/>
  <path d="M176 66l20 10 18-8 10 18-18 10v54c0 10-8 18-18 18h-56c-10 0-18-8-18-18V96l-18-10 10-18 18 8 20-10 7 10h18l7-10Z" fill="url(#shirt)"/>
  <rect x="136" y="92" width="40" height="10" rx="5" fill="#C9FFF5"/>
  <path d="M212 58h44" stroke="#7BC88A" stroke-width="6" stroke-linecap="round"/>
  <path d="M234 58l-10 10" stroke="#7BC88A" stroke-width="6" stroke-linecap="round"/>
  <rect x="240" y="120" width="28" height="44" rx="8" fill="#FFFFFF" stroke="#CFE8D0" stroke-width="2"/>
  <rect x="244" y="112" width="20" height="10" rx="5" fill="#9AD3A2"/>
  <circle cx="254" cy="146" r="4" fill="#9AD3A2"/>
</svg>
